<?xml version="1.0" standalone="no"?>
<!DOCTYPE svg PUBLIC "-//W3C//DTD SVG 20010904//EN"
 "http://www.w3.org/TR/2001/REC-SVG-20010904/DTD/svg10.dtd">
<svg version="1.0" xmlns="http://www.w3.org/2000/svg"
 width="442.000000pt" height="425.000000pt" viewBox="0 0 442.000000 425.000000"
 preserveAspectRatio="xMidYMid meet">
<metadata>
Created by potrace 1.13, written by Peter Selinger 2001-2015
</metadata>
<g transform="translate(0.000000,425.000000) scale(0.100000,-0.100000)"
fill="#000000" stroke="none">
<path d="M451 3739 c-16 -6 -21 -14 -17 -25 4 -9 0 -27 -9 -40 -15 -23 -14
-24 6 -21 12 1 24 -4 26 -10 3 -7 -1 -13 -9 -13 -30 -1 -77 -60 -48 -60 6 0
10 -7 10 -15 0 -8 4 -15 10 -15 5 0 7 -7 4 -15 -8 -19 37 -21 66 -3 30 19 36
1 9 -28 -21 -22 -25 -23 -35 -10 -14 20 -24 20 -24 1 0 -8 -6 -15 -12 -15 -8
-1 -5 -7 6 -15 10 -8 22 -12 27 -10 4 3 10 1 14 -5 10 -17 45 8 38 27 -4 10
-2 14 5 9 6 -3 13 -2 17 4 3 5 16 10 28 10 28 1 61 25 52 39 -3 7 0 8 9 5 12
-4 16 0 16 16 0 11 -4 18 -10 15 -5 -3 -10 -2 -10 3 0 26 54 23 64 -3 4 -11
13 -12 38 -4 18 5 34 9 35 9 2 0 3 -8 3 -18 0 -10 6 -24 13 -31 10 -11 9 -13
-3 -9 -8 3 -20 -2 -27 -11 -11 -14 -12 -14 -13 -1 0 8 -9 1 -19 -16 -11 -19
-17 -41 -14 -57 6 -31 18 -34 32 -9 9 15 10 15 11 1 0 -23 40 -31 67 -14 26
17 39 4 23 -24 -11 -21 -8 -25 30 -34 37 -9 45 -8 45 6 1 43 54 51 75 12 12
-23 15 -24 29 -11 12 13 13 19 1 40 -11 21 -16 23 -32 15 -22 -12 -34 -6 -24
10 4 6 13 8 22 4 12 -4 14 0 9 23 -6 28 -6 28 10 9 12 -14 19 -16 22 -7 7 19
19 14 31 -13 11 -23 16 -25 47 -19 23 4 35 2 35 -5 0 -6 -9 -11 -19 -11 -11 0
-21 -4 -23 -9 -1 -4 -14 -12 -28 -16 -22 -7 -23 -6 -12 8 11 13 10 17 -7 26
-27 15 -39 14 -18 -1 14 -11 15 -19 7 -48 -7 -23 -7 -36 0 -38 15 -5 12 -29
-4 -35 -8 -3 -23 -3 -33 -1 -13 4 -19 0 -20 -15 -1 -12 2 -21 8 -21 5 0 9 -6
9 -14 0 -16 34 -31 49 -22 15 10 39 -4 44 -26 3 -11 10 -17 17 -13 6 3 9 1 8
-6 -2 -7 5 -15 15 -17 15 -3 18 0 12 17 -4 12 -2 21 4 21 6 0 11 -6 11 -14 0
-8 9 -18 20 -21 11 -3 20 -15 20 -26 0 -10 4 -19 9 -19 5 0 15 -16 22 -35 13
-35 24 -42 44 -27 14 10 18 42 5 42 -25 0 -7 17 19 18 28 1 70 22 99 49 10 9
21 9 52 -2 22 -8 40 -10 40 -5 0 6 -4 10 -10 10 -5 0 -7 7 -4 15 6 14 -5 19
-33 16 -7 -1 -13 3 -13 9 0 6 -21 24 -47 40 -43 28 -48 29 -55 13 -4 -12 -7
-3 -7 24 -1 39 -4 43 -33 51 -17 4 -33 14 -36 22 -3 13 -2 13 7 0 7 -10 11
-11 11 -2 0 23 -39 53 -65 48 -25 -5 -48 15 -27 22 19 6 14 17 -19 36 -19 11
-28 23 -25 33 3 8 -5 25 -19 39 -23 23 -50 29 -107 25 -15 -1 -38 5 -50 13
-12 9 -34 16 -49 16 -15 0 -37 12 -55 30 -19 19 -39 29 -59 30 -22 0 -26 -3
-15 -10 12 -8 12 -10 -3 -16 -9 -3 -24 -1 -32 6 -8 7 -35 13 -60 14 -25 0 -45
4 -45 8 0 4 -15 10 -33 13 -24 5 -44 1 -70 -14 -21 -12 -39 -16 -42 -11 -4 6
1 10 9 10 23 0 23 95 0 104 -9 3 -16 6 -17 5 -1 0 -13 -5 -26 -10z"/>
<path d="M290 3583 c-8 -2 -21 -6 -27 -8 -9 -3 -10 -11 -3 -30 11 -30 2 -32
-41 -10 -30 16 -31 16 -74 -22 -7 -7 -18 -13 -23 -13 -6 0 -12 -5 -14 -10 -2
-6 -20 -13 -42 -15 -21 -3 -42 -7 -46 -10 -5 -3 -11 3 -13 12 -3 10 -5 -73 -6
-185 l-1 -203 21 12 c15 8 20 18 16 35 -2 14 -1 27 4 30 4 2 6 11 2 19 -3 8 0
15 6 15 6 0 13 -11 17 -25 3 -14 10 -22 15 -20 9 6 4 49 -13 103 -11 38 -5 74
17 96 19 19 45 10 45 -14 0 -11 5 -22 10 -25 6 -4 9 -19 8 -33 -2 -17 2 -26 9
-25 6 2 15 -7 19 -20 14 -47 72 -79 60 -33 -4 15 -1 26 7 29 9 4 9 6 0 6 -22
2 -14 48 12 79 14 17 25 32 25 35 0 3 -14 20 -31 38 l-30 32 26 11 c15 6 27
15 26 19 -4 26 1 29 42 23 33 -5 47 -3 57 9 10 13 10 18 -2 33 -8 9 -19 29
-26 45 -11 26 -22 31 -52 20z"/>
<path d="M1535 3195 c-10 -33 -23 -63 -29 -67 -7 -5 -4 -8 7 -8 10 0 20 -6 23
-14 5 -13 49 -31 67 -28 4 1 26 -7 48 -19 45 -22 80 -19 59 6 -6 7 -19 11 -27
8 -12 -5 -15 -2 -10 10 3 9 2 19 -3 22 -15 9 -12 25 5 25 21 0 19 37 -2 49
-10 5 -18 19 -18 32 0 35 -22 34 -29 -2 -3 -17 -3 -35 0 -40 3 -5 0 -9 -5 -9
-6 0 -11 -7 -11 -16 0 -8 -4 -12 -10 -9 -5 3 -10 1 -10 -5 0 -6 -4 -9 -9 -6
-6 4 -5 21 1 42 6 22 6 39 0 43 -5 3 -14 15 -19 26 -10 17 -13 12 -28 -40z"/>
<path d="M4356 3015 c-11 -8 -28 -15 -38 -15 -10 0 -19 -4 -19 -10 -1 -5 -2
-16 -3 -22 -1 -7 4 -20 11 -29 9 -11 10 -24 4 -46 -11 -37 -6 -87 13 -122 33
-63 43 -79 58 -94 24 -24 38 -21 38 8 0 14 -5 25 -11 25 -6 0 -8 7 -5 15 3 8
9 22 12 30 4 11 0 15 -15 15 -27 0 -27 16 -1 32 18 11 20 24 20 107 0 78 -3
96 -17 107 -22 17 -24 17 -47 -1z"/>
<path d="M892 2982 c-7 -2 -12 -12 -12 -21 0 -18 -18 -36 -58 -59 -21 -12 -27
-11 -43 4 -10 9 -19 21 -19 26 0 5 -7 17 -16 25 -13 13 -17 14 -24 3 -7 -11
-11 -10 -25 3 -13 14 -20 15 -38 5 -19 -11 -20 -13 -4 -16 9 -2 17 -7 17 -12
0 -5 -6 -7 -14 -4 -9 3 -15 -4 -17 -23 -6 -43 1 -73 17 -73 20 0 17 -13 -7
-33 -19 -17 -23 -17 -44 -3 -14 9 -29 16 -34 16 -10 0 -5 -95 5 -112 3 -4 0
-8 -6 -8 -7 0 -10 -6 -7 -14 4 -10 0 -12 -14 -9 -29 8 -23 -14 11 -39 32 -23
40 -44 14 -34 -14 5 -15 4 -5 -8 6 -7 25 -16 41 -20 18 -3 30 -12 30 -21 0
-12 6 -15 20 -10 14 5 20 2 20 -9 0 -9 7 -16 15 -16 8 0 15 -5 15 -11 0 -12
72 -5 94 9 6 3 29 8 50 9 22 2 44 9 49 15 7 11 10 11 14 0 2 -6 8 -10 13 -7 5
3 31 0 59 -6 46 -10 55 -8 86 10 30 17 47 20 107 15 39 -3 75 -7 80 -10 4 -3
13 -2 20 2 7 5 31 9 53 10 22 1 69 4 105 6 55 3 72 0 112 -22 46 -24 108 -96
108 -124 0 -8 5 -16 10 -18 11 -3 20 -35 24 -88 2 -20 8 -45 14 -57 7 -12 12
-30 12 -41 0 -10 11 -29 25 -42 14 -13 25 -28 25 -34 0 -5 10 -30 23 -55 19
-41 22 -59 19 -158 -1 -62 1 -113 6 -113 5 0 7 -18 5 -40 -2 -24 0 -40 7 -40
5 0 10 9 10 20 0 11 5 20 11 20 8 0 10 14 6 44 -5 36 -2 49 18 77 14 18 24 44
24 58 -1 15 1 85 5 156 5 98 10 133 21 141 19 14 19 44 0 44 -8 0 -15 5 -15
10 0 6 7 10 15 10 22 0 19 40 -2 40 -17 1 -17 2 0 14 12 9 14 16 8 21 -19 11
-12 34 14 51 23 15 27 15 49 1 33 -22 87 -19 94 5 2 10 8 18 13 18 5 0 9 7 9
15 0 8 8 16 18 17 9 0 22 2 27 3 6 2 21 3 34 4 30 1 18 16 -12 16 -15 0 -23 7
-25 22 -2 13 -17 28 -38 38 -35 16 -41 32 -35 94 1 13 -4 28 -11 32 -9 6 -8 9
5 15 9 3 17 10 17 15 0 4 -6 6 -13 3 -19 -7 -20 53 -2 64 12 6 10 13 -11 35
-24 26 -27 27 -39 11 -8 -11 -12 -47 -11 -96 1 -58 -3 -79 -13 -83 -10 -4 -12
-16 -8 -41 6 -37 -9 -74 -30 -74 -6 0 -14 6 -16 13 -3 6 -6 2 -6 -11 -1 -13
-5 -20 -11 -17 -6 4 -8 21 -5 39 5 25 3 33 -8 33 -8 0 -13 -6 -10 -13 2 -6 -1
-15 -7 -19 -8 -5 -6 -12 5 -25 11 -12 13 -20 6 -25 -15 -9 -14 -26 2 -22 6 1
12 -5 12 -13 0 -9 -7 -14 -18 -12 -10 2 -17 -2 -16 -10 1 -7 0 -22 -1 -33 -1
-14 -5 -10 -14 15 -8 19 -12 38 -10 41 4 8 -93 59 -112 59 -17 0 -19 16 -3 26
8 4 7 9 -2 15 -19 12 -32 11 -24 -1 3 -5 -4 -10 -15 -10 -15 0 -20 5 -17 14 3
8 1 17 -6 20 -9 4 -9 7 -1 11 19 9 -5 84 -32 102 -13 8 -24 21 -24 27 0 33
-104 102 -165 109 -16 2 -40 9 -52 15 -12 7 -33 12 -47 12 -20 0 -24 -4 -20
-17 5 -17 5 -17 -6 0 -12 18 -40 24 -40 7 0 -5 -24 -1 -52 9 -29 11 -78 25
-108 31 -30 7 -68 16 -84 21 -16 5 -36 9 -44 9 -13 0 -13 -3 2 -19 14 -15 14
-20 2 -30 -11 -9 -15 -8 -20 4 -3 8 -11 15 -18 15 -7 0 -27 15 -44 33 -16 18
-35 32 -42 29z"/>
<path d="M3858 2942 l-28 -18 30 -35 c17 -18 26 -35 20 -37 -5 -2 -10 -17 -10
-33 0 -30 -13 -38 -26 -17 -5 7 -7 30 -5 51 2 29 -1 38 -11 35 -7 -3 -12 -15
-11 -26 2 -11 -4 -33 -11 -47 -13 -24 -12 -29 6 -47 26 -26 83 -16 75 13 -3
12 2 23 14 29 10 6 16 17 13 25 -4 9 3 18 19 24 14 6 27 21 31 36 4 14 11 23
16 20 6 -4 10 6 9 22 0 15 -3 22 -6 16 -6 -15 -90 -18 -95 -3 -1 5 -15 2 -30
-8z"/>
<path d="M4307 2738 c-3 -8 -2 -33 3 -56 4 -23 3 -45 -2 -50 -6 -6 -6 -12 1
-16 6 -4 11 -18 11 -32 0 -14 7 -27 15 -30 8 -4 15 -17 15 -30 0 -13 4 -24 8
-24 4 0 7 -11 7 -25 -2 -28 -49 -80 -65 -70 -10 6 -11 -1 -14 -124 -1 -48 0
-49 17 -33 32 29 46 74 30 97 -21 31 -16 42 17 37 16 -2 27 -8 24 -13 -3 -5 0
-9 6 -9 6 0 8 10 4 26 -6 23 -4 25 12 20 31 -10 30 41 -1 74 -26 27 -25 70 1
70 20 0 18 6 -16 67 -16 29 -30 58 -30 65 0 7 -8 26 -19 41 -13 20 -20 24 -24
15z"/>
<path d="M419 2673 c-1 -5 -1 -11 0 -15 0 -5 -5 -8 -11 -8 -7 0 -2 -9 11 -19
16 -12 20 -21 12 -25 -16 -10 -14 -36 4 -36 8 0 15 -4 15 -10 0 -5 -11 -10
-25 -10 -16 0 -25 6 -25 16 0 10 -6 14 -14 11 -8 -3 -28 -1 -45 6 -25 9 -33 8
-49 -6 -24 -22 -34 -22 -31 1 3 35 0 45 -13 35 -7 -6 -30 -13 -50 -17 -35 -6
-54 -26 -25 -26 7 0 18 -9 24 -19 10 -16 9 -22 -3 -32 -8 -6 -15 -10 -17 -8
-1 2 -7 13 -13 24 -7 12 -19 19 -30 17 -27 -5 -31 -12 -14 -22 13 -8 13 -10
-2 -10 -11 0 -15 -6 -11 -19 3 -10 1 -21 -4 -24 -5 -4 -9 10 -8 29 0 20 -5 43
-12 52 -11 15 -12 15 -13 -5 0 -27 -18 -31 -26 -5 -11 34 -27 62 -36 62 -5 0
-8 -19 -6 -42 3 -39 6 -44 38 -54 50 -16 50 -34 1 -34 -49 0 -54 -19 -17 -54
14 -12 27 -35 29 -52 2 -17 11 -30 20 -32 13 -3 17 4 17 32 0 35 1 36 41 36
35 0 40 -2 34 -19 -3 -11 -1 -22 5 -26 6 -3 8 -10 5 -15 -13 -20 24 -30 85
-21 72 9 108 -2 102 -32 -3 -17 -14 -18 -126 -16 -66 2 -127 0 -134 -5 -6 -4
-12 -3 -12 2 0 5 -20 10 -45 10 l-45 2 0 -70 c0 -40 4 -70 10 -70 6 0 10 23
10 50 l0 50 38 2 c20 0 48 2 62 3 36 3 212 8 229 6 9 -1 11 -9 7 -26 -5 -20
-3 -25 14 -25 11 0 20 -6 20 -12 1 -7 7 -2 15 12 7 14 17 24 22 23 4 -1 7 11
5 26 -2 22 2 30 18 34 12 3 20 13 20 25 0 12 5 24 10 27 6 3 10 12 9 18 0 8
-2 8 -6 -1 -3 -7 -18 -19 -35 -28 l-30 -16 17 29 c16 28 65 64 95 69 8 2 20
11 27 21 7 10 21 27 31 38 34 37 37 49 14 43 -12 -4 -25 -2 -28 3 -9 15 -33
10 -54 -11 -11 -11 -20 -22 -20 -25 0 -3 0 -8 0 -11 0 -4 -6 -1 -14 5 -7 6
-22 8 -31 4 -15 -5 -17 -3 -12 11 4 10 7 23 7 29 0 7 4 6 10 -3 7 -12 12 -12
35 0 14 7 21 16 16 20 -16 9 -60 78 -54 84 3 3 14 -5 24 -17 10 -12 18 -17 19
-11 0 15 -35 46 -43 38 -4 -4 -11 5 -16 20 -10 25 -20 34 -22 19z"/>
<path d="M2926 2671 c-4 -5 -3 -17 0 -28 5 -13 2 -12 -10 5 -12 15 -28 22 -52
22 -19 0 -34 -5 -34 -10 0 -6 6 -10 13 -9 47 6 65 -17 61 -83 -5 -84 -1 -90
58 -87 45 3 53 0 74 -25 14 -15 21 -32 18 -38 -4 -7 -2 -8 4 -4 6 4 9 13 5 21
-3 8 0 15 7 15 6 0 8 5 4 11 -5 8 -1 8 14 0 19 -10 21 -8 20 19 -1 17 -6 30
-14 30 -23 0 -65 46 -58 64 10 26 -16 74 -49 91 -34 17 -53 19 -61 6z"/>
<path d="M3732 2368 c-20 -20 -14 -40 10 -36 11 2 23 -2 25 -8 4 -13 -56 -44
-86 -44 -12 0 -21 -5 -21 -10 0 -6 -11 -3 -25 6 -31 20 -41 14 -25 -16 7 -12
18 -19 26 -16 28 11 13 -13 -16 -26 -16 -7 -29 -19 -27 -27 1 -8 -4 -16 -12
-19 -10 -3 -12 1 -8 17 4 16 1 21 -14 21 -10 0 -20 5 -20 10 -1 6 -2 16 -3 23
-1 6 -12 11 -24 10 -14 -2 -22 3 -22 12 0 19 -16 19 -24 0 -3 -8 -15 -14 -27
-12 -12 1 -24 -4 -26 -10 -3 -9 7 -13 30 -13 20 0 40 -7 48 -16 11 -14 10 -19
-10 -35 -30 -24 -37 -24 -44 2 -8 29 -27 14 -27 -20 0 -38 39 -60 74 -42 15 9
22 19 19 31 -6 21 13 60 28 60 7 0 9 -12 7 -30 -3 -20 1 -35 12 -45 21 -19 90
-27 108 -12 10 8 21 6 44 -7 25 -16 34 -16 54 -6 19 11 26 11 39 0 20 -17 21
-14 27 43 5 44 4 47 -14 41 -10 -3 -25 0 -33 6 -10 8 -15 9 -15 2 0 -6 -9 -16
-21 -23 -19 -10 -20 -9 -14 13 4 12 12 25 16 26 5 2 9 11 9 19 0 11 7 14 24 9
22 -5 24 -3 29 47 5 60 1 78 -18 71 -7 -3 -16 -1 -20 5 -8 14 -18 14 -33 -1z"/>
<path d="M4180 2345 c0 -22 -8 -43 -20 -55 -14 -14 -20 -16 -20 -6 0 17 -35
27 -48 14 -6 -6 -12 -6 -16 1 -9 14 -63 14 -71 1 -3 -5 -21 -10 -39 -10 -42 0
-57 -16 -46 -46 10 -25 -9 -54 -36 -54 -8 0 -14 -4 -14 -10 0 -5 5 -10 10 -10
14 0 12 -33 -2 -49 -11 -11 -9 -12 9 -7 12 4 24 2 28 -4 5 -8 13 -6 26 6 18
16 19 16 13 1 -4 -11 -1 -17 8 -17 10 0 12 11 10 42 -5 45 19 102 46 113 19 7
62 -32 62 -58 0 -10 -7 -35 -16 -54 -13 -25 -14 -37 -5 -46 8 -8 15 -6 27 9 8
10 13 14 10 7 -9 -17 34 -43 72 -43 23 0 42 8 60 28 26 26 27 30 26 145 0 78
-5 122 -13 130 -9 9 -14 9 -20 -2 -6 -9 -11 -10 -15 -2 -14 22 -26 10 -26 -24z"/>
<path d="M743 1943 c-35 -7 -27 -23 11 -23 19 0 37 -4 40 -9 4 -5 -31 -10 -78
-10 -127 -1 -230 -28 -182 -47 19 -7 21 -24 4 -24 -6 0 -20 -8 -30 -17 -23
-20 -55 -6 -50 21 3 16 1 16 -22 1 -14 -9 -27 -24 -30 -33 -19 -69 -26 -141
-14 -149 5 -2 8 -15 8 -27 0 -36 28 -108 53 -134 55 -59 99 -79 188 -84 91 -6
109 -3 109 16 0 7 18 27 40 45 49 39 138 155 147 190 3 14 9 28 12 31 4 3 12
16 19 30 12 25 12 25 7 -5 -4 -24 2 -17 30 30 19 33 35 65 35 71 0 20 45 8 55
-14 5 -12 13 -22 17 -22 10 0 10 31 0 47 -9 15 -66 20 -104 9 -22 -7 -28 -5
-28 8 0 9 6 19 13 22 8 3 14 12 14 20 0 12 -15 15 -81 14 -111 -2 -116 -1
-116 10 0 6 31 10 73 10 45 0 66 4 57 9 -18 10 -166 21 -197 14z"/>
<path d="M1330 1920 c-25 -5 -74 -9 -110 -9 -81 -1 -110 -9 -104 -27 14 -47
15 -48 23 -36 4 7 6 -11 3 -41 -3 -37 1 -63 12 -85 18 -36 20 -46 6 -37 -5 3
-10 4 -10 1 0 -12 34 -76 40 -76 4 0 12 -17 19 -37 13 -40 47 -71 82 -78 12
-2 27 -9 35 -16 8 -6 14 -8 14 -4 0 7 -16 23 -65 64 -26 22 -60 61 -52 61 3 0
21 -15 40 -34 144 -140 295 -163 404 -63 60 55 73 92 74 199 0 114 -21 157
-98 194 -45 23 -69 27 -161 30 -59 1 -127 -1 -152 -6z"/>
<path d="M1154 1347 c-10 -6 -26 -12 -34 -14 -8 -1 -31 -10 -52 -19 -38 -17
-39 -17 -68 4 -16 12 -40 22 -53 22 -23 0 -77 -43 -77 -61 0 -12 38 -30 58
-28 9 1 24 -1 32 -4 91 -35 229 -30 244 9 3 9 20 14 44 14 21 0 46 6 56 13 17
12 14 16 -35 39 -68 33 -91 38 -115 25z"/>
<path d="M700 1281 c-82 -36 -124 -93 -114 -152 10 -56 16 -67 23 -40 8 32 28
38 36 11 9 -28 24 -16 23 18 -1 15 4 37 9 47 6 11 9 25 6 31 -2 5 12 28 31 50
26 31 30 40 18 41 -10 0 -24 -2 -32 -6z"/>
<path d="M1130 1109 c-19 -5 -75 -11 -125 -13 -98 -4 -275 -33 -275 -46 0 -4
16 -22 35 -39 40 -35 72 -41 71 -13 -1 9 2 17 5 17 3 0 12 5 20 12 8 6 44 11
80 10 36 0 70 3 76 6 6 4 34 6 64 6 30 0 74 3 99 6 101 12 150 8 150 -15 0
-12 2 -13 9 -1 5 7 14 10 20 7 8 -5 7 -15 -5 -34 -20 -33 -74 -78 -74 -62 0 7
-8 6 -22 -4 -16 -12 -25 -13 -35 -4 -10 8 -17 8 -25 0 -7 -7 -26 -12 -42 -12
-35 0 -63 -14 -48 -23 25 -16 123 -6 150 16 7 5 15 7 18 4 19 -19 194 117 194
151 0 6 -15 15 -32 21 -47 14 -267 22 -308 10z"/>
<path d="M463 997 c-6 -12 -9 -40 -7 -61 2 -37 47 -135 78 -173 8 -10 45 -55
81 -100 36 -46 89 -100 118 -122 78 -57 145 -94 163 -87 17 6 127 -71 119 -84
-7 -12 -104 10 -186 42 -83 32 -130 71 -212 173 -26 33 -55 69 -64 79 -39 48
-122 185 -135 225 -11 32 -17 39 -22 26 -3 -10 2 -36 13 -59 10 -22 23 -52 29
-66 5 -14 25 -46 45 -72 20 -25 42 -59 51 -75 8 -15 26 -40 39 -54 14 -14 28
-36 32 -49 4 -13 19 -33 33 -44 34 -27 82 -105 82 -133 0 -13 -2 -23 -6 -23
-19 0 -127 70 -165 107 -42 41 -48 44 -68 31 -21 -13 -28 -28 -13 -28 5 0 26
-16 48 -35 21 -19 33 -35 27 -35 -7 0 -13 -5 -13 -11 0 -6 8 -8 18 -4 19 6 38
-2 107 -46 22 -13 64 -35 93 -48 56 -26 68 -54 36 -85 -22 -23 -44 -20 -106
12 -104 55 -190 126 -230 189 -14 23 -24 31 -31 24 -6 -6 -16 -3 -28 12 -23
28 -24 10 -2 -34 17 -34 44 -62 143 -149 36 -31 50 -50 47 -62 -5 -17 35 -77
56 -86 4 -2 5 -8 2 -12 -3 -5 5 -25 17 -44 l23 -36 943 0 c645 0 942 3 942 10
0 6 -9 28 -20 50 -11 22 -20 51 -20 65 0 39 -26 92 -52 106 -12 7 -41 29 -63
51 -41 40 -311 179 -370 191 -16 3 -24 4 -17 1 6 -3 12 -10 12 -15 0 -12 -21
-11 -40 1 -13 9 -13 11 -1 19 11 7 4 11 -25 16 -136 23 -214 67 -214 120 -1
71 -77 296 -89 262 -3 -8 -18 -29 -33 -45 -14 -17 -24 -33 -21 -36 4 -3 1 -6
-5 -6 -6 0 -13 -9 -17 -20 -3 -10 -28 -42 -56 -70 -27 -27 -49 -53 -49 -56 0
-10 -82 -89 -113 -109 -21 -13 -50 -19 -108 -20 -44 -1 -82 2 -85 7 -3 5 -10
6 -15 2 -6 -3 -20 2 -31 13 -15 13 -22 15 -25 6 -5 -14 -43 -18 -43 -4 0 8
-161 2 -199 -8 -2 -1 4 -10 14 -21 10 -11 13 -20 7 -20 -15 0 -33 35 -24 45 4
4 -3 4 -15 1 -18 -6 -34 3 -78 45 -31 29 -55 61 -56 73 0 12 -3 15 -6 8 -3 -9
-12 -6 -29 10 -39 36 -47 57 -32 76 11 15 11 15 -3 5 -13 -11 -19 -9 -36 10
-47 52 -83 118 -96 176 -17 75 -29 91 -44 58z"/>
<path d="M54 572 c13 -22 -4 -52 -30 -52 l-24 0 0 -170 c0 -93 4 -170 9 -170
15 0 36 -61 23 -69 -7 -4 -1 -21 19 -50 16 -24 29 -48 29 -53 0 -4 110 -8 245
-8 246 0 246 0 235 21 -7 11 -9 27 -6 35 3 8 -1 14 -9 14 -14 0 -38 58 -33 81
2 7 -3 13 -9 14 -7 0 -13 3 -13 8 0 4 -9 16 -20 27 -12 12 -18 25 -15 30 4 6
0 10 -7 11 -14 0 -88 92 -88 108 0 5 -10 7 -22 4 -18 -4 -20 -3 -8 6 12 8 10
12 -10 19 -14 5 -31 7 -39 4 -30 -12 -3 22 34 42 22 11 42 22 44 24 3 1 0 7
-5 12 -11 11 -64 -8 -64 -22 0 -20 -30 -5 -31 15 -2 45 -9 100 -14 105 -13 14
-29 -22 -29 -69 -1 -29 -6 -54 -12 -56 -6 -2 -44 31 -84 74 -41 43 -70 72 -66
65z"/>
</g>
</svg>
