<?xml version="1.0" standalone="no"?>
<!DOCTYPE svg PUBLIC "-//W3C//DTD SVG 20010904//EN"
 "http://www.w3.org/TR/2001/REC-SVG-20010904/DTD/svg10.dtd">
<svg version="1.0" xmlns="http://www.w3.org/2000/svg"
 width="442.000000pt" height="425.000000pt" viewBox="0 0 442.000000 425.000000"
 preserveAspectRatio="xMidYMid meet">

<g transform="translate(0.000000,425.000000) scale(0.100000,-0.100000)"
fill="#000000" stroke="none">
<path d="M451 3739 c-16 -6 -21 -14 -17 -25 4 -9 -1 -28 -10 -41 -15 -24 -15
-25 5 -18 15 5 21 2 21 -9 0 -9 -3 -16 -8 -16 -4 0 -19 -11 -34 -25 -27 -25
-28 -25 -8 -45 11 -11 21 -30 21 -42 1 -13 2 -32 3 -42 1 -28 61 -59 87 -46
11 6 17 15 14 21 -9 13 20 39 43 39 21 0 82 51 82 68 0 6 -8 12 -17 14 -17 3
-17 4 -1 10 12 5 25 0 38 -14 19 -21 60 -33 60 -17 0 4 6 9 13 12 12 4 15 -21
7 -43 -1 -3 -2 -8 -1 -12 0 -5 -4 -8 -9 -8 -6 0 -10 5 -10 10 0 6 -7 10 -16
10 -11 0 -14 -6 -9 -21 4 -13 1 -27 -10 -39 -10 -11 -12 -20 -6 -24 5 -4 8
-29 6 -56 -4 -43 -2 -48 12 -43 11 4 13 8 5 11 -17 5 -15 22 3 22 8 0 15 6 15
13 0 9 9 12 29 9 16 -2 39 1 51 8 21 11 22 11 16 -14 -5 -20 -2 -28 11 -32 10
-3 28 -10 40 -16 24 -12 47 -2 39 17 -5 13 12 35 26 35 4 0 9 -10 9 -22 1 -20
2 -20 6 -4 5 18 6 18 23 -4 16 -21 20 -22 34 -11 14 12 16 12 10 -3 -3 -9 -1
-22 5 -30 14 -17 2 -29 -16 -15 -10 9 -13 8 -13 -1 0 -7 -7 -10 -15 -6 -9 3
-15 0 -15 -9 0 -8 -5 -15 -10 -15 -7 0 -7 6 0 19 13 25 13 31 0 31 -5 0 -10
-7 -10 -16 0 -8 -4 -13 -9 -9 -5 3 -13 1 -16 -5 -10 -16 14 -40 40 -40 15 0
25 -7 28 -21 4 -15 13 -20 34 -19 44 3 53 1 53 -13 0 -23 34 -46 64 -44 19 1
32 -4 40 -18 6 -10 17 -25 24 -33 11 -13 17 -35 13 -56 -1 -5 11 -6 27 -3 17
3 35 1 43 -6 7 -7 6 -3 -2 8 -9 11 -14 26 -12 33 3 6 0 12 -6 12 -25 0 -9 17
17 18 15 0 49 12 76 26 50 25 72 25 62 0 -3 -8 -1 -14 3 -14 5 0 12 7 15 15 4
13 10 14 26 5 25 -13 27 1 4 36 -12 17 -22 23 -35 19 -13 -4 -19 -1 -19 8 0 8
-25 27 -55 43 -41 22 -55 35 -55 51 0 13 -8 24 -20 28 -11 3 -20 11 -20 16 0
17 -58 70 -65 60 -9 -16 -36 0 -30 18 3 11 -5 23 -26 35 -19 11 -28 23 -25 33
3 8 -5 25 -19 39 -23 23 -37 26 -110 27 -16 0 -36 6 -43 14 -7 7 -28 13 -46
13 -23 0 -41 9 -61 30 -18 19 -39 30 -56 30 -30 0 -47 -15 -27 -23 8 -4 7 -6
-4 -6 -9 -1 -20 4 -23 9 -3 6 -15 10 -26 10 -10 0 -19 4 -19 9 0 5 -9 7 -20 4
-11 -3 -28 -2 -37 2 -38 17 -72 15 -107 -4 -20 -12 -36 -16 -36 -11 0 6 5 10
10 10 6 0 10 22 10 49 0 35 -4 51 -16 55 -9 3 -16 6 -17 5 -1 0 -13 -5 -26
-10z m142 -132 c-7 -11 -23 2 -23 19 0 12 2 12 14 2 8 -7 12 -16 9 -21z m343
-95 c-5 -14 -13 -18 -26 -15 -11 3 -20 10 -20 15 0 6 9 8 20 5 14 -3 20 0 20
11 0 8 3 13 6 9 3 -3 3 -14 0 -25z m-416 10 c0 -5 -10 -18 -23 -30 -23 -22
-23 -22 -40 -2 -16 19 -16 20 3 20 10 0 22 5 25 10 7 12 35 13 35 2z m415 -86
c0 -13 -5 -22 -10 -19 -15 5 -16 43 -2 43 7 0 12 -11 12 -24z m101 -32 c-9 -9
-20 -13 -24 -9 -4 4 -1 10 6 12 21 8 13 25 -8 18 -27 -9 -25 8 3 20 30 14 48
-16 23 -41z m94 6 c0 -5 -9 -10 -20 -10 -11 0 -20 5 -20 10 0 6 9 10 20 10 11
0 20 -4 20 -10z m59 -55 c12 4 21 2 21 -4 0 -6 -8 -11 -18 -11 -10 0 -23 -5
-30 -12 -9 -9 -12 -9 -12 0 0 7 -7 12 -15 12 -8 0 -15 -4 -15 -10 0 -5 -7 -7
-16 -3 -13 5 -9 10 17 23 19 9 37 12 40 7 4 -5 16 -6 28 -2z m16 -173 c-8 -8
-25 10 -19 20 4 6 9 5 15 -3 4 -7 6 -15 4 -17z m125 13 c16 -19 3 -19 -30 0
-24 13 -24 14 -4 15 12 0 27 -7 34 -15z"/>
<path d="M285 3583 c-31 -8 -38 -19 -26 -42 14 -26 2 -27 -40 -6 -24 13 -32
13 -44 3 -34 -28 -42 -34 -73 -51 -28 -16 -35 -17 -49 -5 -12 9 -15 9 -9 1 5
-9 1 -13 -13 -13 -10 0 -22 6 -24 13 -3 6 -6 -81 -6 -196 -1 -206 -1 -207 19
-195 15 9 20 22 18 43 -2 22 2 31 14 33 14 3 16 -1 11 -15 -6 -16 -5 -16 9 -5
18 14 16 62 -4 114 -6 15 -7 39 -4 52 7 29 34 58 46 51 17 -10 38 -65 33 -84
-3 -13 2 -23 16 -30 12 -7 21 -17 21 -24 0 -7 11 -23 25 -35 21 -20 26 -22 31
-8 3 8 3 20 -1 26 -4 6 1 18 11 25 18 13 18 14 1 15 -23 0 -16 44 13 75 27 28
26 35 -12 70 l-32 30 27 3 c15 2 27 9 26 15 -4 33 1 37 40 31 22 -4 47 -1 60
5 21 11 21 12 3 39 -10 15 -23 36 -28 47 -12 21 -27 26 -59 18z"/>
<path d="M4277 3406 c-19 -15 -26 -28 -21 -39 7 -20 13 -21 38 -2 10 8 23 12
28 9 16 -10 20 25 5 41 -19 19 -16 19 -50 -9z"/>
<path d="M4411 3384 c0 -11 3 -14 6 -6 3 7 2 16 -1 19 -3 4 -6 -2 -5 -13z"/>
<path d="M4095 3350 c-3 -5 -4 -14 0 -19 3 -5 1 -12 -5 -16 -5 -3 -10 -1 -10
6 0 7 -8 5 -20 -6 -11 -10 -20 -25 -20 -34 0 -12 -3 -12 -12 -3 -18 18 -42 15
-68 -8 -22 -19 -46 -18 -35 1 9 14 -18 11 -42 -6 -16 -11 -28 -13 -47 -5 -22
8 -28 5 -50 -23 -18 -23 -22 -34 -13 -39 7 -4 8 -8 2 -8 -6 0 -16 5 -23 12 -9
9 -12 8 -12 -5 0 -9 4 -17 10 -17 5 0 7 -7 4 -15 -4 -8 -17 -15 -30 -15 -13 0
-24 -5 -24 -10 0 -6 -7 -10 -16 -8 -11 2 -22 -12 -34 -45 -10 -27 -27 -55 -37
-62 -15 -11 -15 -17 -5 -39 10 -23 10 -26 -4 -24 -28 5 -27 -21 0 -34 20 -9
29 -9 38 0 7 7 20 12 30 12 10 0 18 6 18 14 0 7 7 27 15 42 8 16 15 37 15 47
0 11 8 17 23 17 14 0 18 -3 10 -8 -14 -9 -15 -81 -1 -99 6 -8 3 -15 -11 -22
-16 -9 -19 -16 -12 -34 7 -18 5 -25 -14 -33 -13 -6 -29 -8 -36 -3 -7 4 -19 3
-26 -3 -11 -8 -12 -7 -6 7 5 14 3 17 -10 12 -9 -3 -16 -3 -16 1 3 21 -3 32
-18 32 -16 0 -16 -2 -3 -10 11 -8 9 -9 -11 -5 -17 4 -32 1 -42 -9 -8 -9 -23
-13 -31 -10 -12 5 -15 2 -9 -12 4 -12 3 -15 -5 -10 -7 4 -12 2 -12 -4 0 -7 -8
-9 -20 -5 -11 4 -26 1 -34 -7 -16 -17 -13 -64 4 -60 31 7 50 -10 50 -43 0 -40
23 -40 28 0 1 14 3 36 5 50 1 14 6 25 11 25 6 0 19 9 30 19 24 22 44 27 69 17
21 -10 23 -30 2 -22 -16 6 -16 -17 0 -56 4 -11 3 -18 -4 -18 -6 0 -11 -5 -11
-10 0 -6 8 -5 20 2 11 7 20 20 20 29 0 17 28 34 38 24 3 -3 0 -5 -6 -5 -23 0
-12 -18 14 -23 20 -3 27 1 35 20 5 14 7 29 3 34 -3 5 4 9 15 9 11 0 22 9 26
20 8 24 21 26 29 4 5 -14 -16 -48 -25 -39 -2 2 -5 -8 -5 -21 -1 -15 4 -24 13
-24 13 0 13 -3 3 -15 -12 -14 -6 -20 15 -15 10 2 37 6 63 9 6 0 12 12 12 26 0
13 6 28 14 32 8 4 16 17 18 28 2 11 9 19 15 18 6 -1 16 11 22 28 6 17 15 28
20 24 14 -8 26 44 14 56 -6 6 -14 4 -23 -6 -14 -17 -66 -20 -76 -4 -4 8 1 9
15 4 16 -5 27 -1 42 16 17 20 18 24 4 39 -23 26 -18 40 13 37 33 -4 52 -14 52
-28 0 -6 -4 -7 -10 -4 -5 3 -10 1 -10 -4 0 -14 6 -14 40 4 16 8 36 12 44 9 10
-4 16 -1 16 9 0 8 6 17 14 20 27 11 42 59 33 107 -11 56 -27 76 -27 33 0 -35
-21 -58 -37 -42 -5 5 -17 7 -26 3 -17 -6 -19 -11 -21 -73 0 -19 -6 -36 -12
-38 -7 -2 -10 9 -8 34 3 21 1 34 -3 28 -5 -5 -16 -11 -26 -13 -16 -3 -17 0 -7
18 6 11 8 25 5 30 -3 5 -1 11 5 15 17 10 11 21 -17 34 -21 10 -28 9 -34 -1
-13 -21 -10 -32 5 -19 11 9 15 5 18 -23 3 -24 -1 -37 -10 -41 -12 -4 -12 -8
-1 -22 12 -14 12 -16 -1 -11 -8 2 -20 -5 -26 -16 -6 -12 -21 -40 -34 -64 -12
-23 -31 -47 -42 -53 -13 -7 -17 -17 -13 -32 4 -15 3 -18 -3 -9 -8 11 -10 11
-15 -1 -3 -10 -14 -13 -31 -10 -31 6 -32 13 -6 41 24 25 26 60 5 68 -19 8 -19
48 -1 63 15 12 17 68 3 64 -4 -2 -12 -3 -19 -3 -6 0 -8 -3 -5 -6 3 -4 1 -16
-4 -27 -9 -16 -13 -17 -20 -6 -8 12 -10 12 -18 0 -5 -7 -14 -10 -21 -6 -9 6
-9 10 1 16 12 8 11 11 -1 20 -12 8 -9 9 12 5 20 -5 33 -1 49 15 12 12 35 23
51 24 33 3 33 2 12 -30 -15 -24 -15 -26 5 -43 22 -17 22 -18 4 -37 -29 -31
-34 -53 -16 -64 21 -11 43 9 43 41 0 13 4 28 9 34 5 5 12 24 16 42 6 29 5 32
-19 32 -18 0 -24 4 -20 15 4 8 12 15 20 15 21 0 54 32 54 52 0 25 15 30 46 13
39 -20 48 -19 59 7 14 31 45 36 45 8 0 -14 -5 -20 -16 -18 -10 2 -19 -3 -21
-9 -3 -8 4 -13 15 -13 13 0 23 9 27 23 22 73 45 99 45 50 0 -21 3 -24 12 -15
6 6 12 19 13 29 0 10 4 24 9 31 4 7 2 19 -4 27 -14 17 -46 20 -55 5z m5 -235
c0 -8 -2 -15 -4 -15 -2 0 -6 7 -10 15 -3 8 -1 15 4 15 6 0 10 -7 10 -15z
m-260 -115 c0 -5 -2 -10 -4 -10 -3 0 -8 5 -11 10 -3 6 -1 10 4 10 6 0 11 -4
11 -10z m32 -160 c-6 -58 -22 -55 -29 5 -3 31 -1 36 14 33 14 -3 17 -11 15
-38z m-387 -40 c3 -6 -4 -10 -17 -10 -18 0 -20 2 -8 10 19 12 18 12 25 0z"/>
<path d="M371 3326 c-8 -10 -9 -16 -1 -21 5 -3 13 1 16 10 9 22 -1 29 -15 11z"/>
<path d="M4411 3324 c0 -11 3 -14 6 -6 3 7 2 16 -1 19 -3 4 -6 -2 -5 -13z"/>
<path d="M2607 3280 c5 -36 3 -40 -16 -40 -28 0 -45 -37 -33 -69 9 -24 9 -24
21 10 l12 34 18 -34 18 -34 7 27 c7 28 -13 146 -25 146 -4 0 -5 -18 -2 -40z"/>
<path d="M405 3300 c-3 -5 -3 -15 1 -21 6 -11 23 6 24 24 0 10 -18 9 -25 -3z"/>
<path d="M345 3250 c-3 -5 -1 -10 4 -10 6 0 11 5 11 10 0 6 -2 10 -4 10 -3 0
-8 -4 -11 -10z"/>
<path d="M4233 3253 c-14 -5 -18 -33 -5 -33 24 1 52 14 52 26 0 14 -23 17 -47
7z"/>
<path d="M4355 3250 c-4 -6 -1 -18 7 -27 7 -9 12 -18 11 -20 -3 -4 -1 -3 27 4
11 3 20 12 20 20 0 11 -7 13 -32 8 -26 -6 -30 -5 -25 9 7 18 2 22 -8 6z"/>
<path d="M1539 3209 c-7 -24 -19 -54 -27 -66 -13 -20 -12 -23 1 -23 9 0 20 -6
24 -13 9 -16 38 -29 70 -33 12 -2 36 -10 53 -19 38 -19 69 -13 50 10 -6 8 -17
13 -23 12 -6 -1 -11 3 -12 10 0 6 -3 15 -7 19 -13 12 -9 24 7 24 21 0 19 37
-4 49 -13 7 -17 18 -14 36 4 18 1 25 -10 25 -15 0 -32 -54 -21 -71 3 -5 0 -9
-5 -9 -6 0 -11 -7 -11 -16 0 -8 -4 -12 -10 -9 -5 3 -10 1 -10 -5 0 -6 -4 -9
-9 -6 -6 4 -5 21 1 42 6 22 6 39 0 43 -5 3 -14 15 -19 25 -10 18 -12 15 -24
-25z"/>
<path d="M925 3210 c-3 -5 -1 -10 4 -10 6 0 11 5 11 10 0 6 -2 10 -4 10 -3 0
-8 -4 -11 -10z"/>
<path d="M4351 3175 c1 -11 5 -33 9 -50 6 -25 8 -27 15 -12 4 10 1 30 -9 50
-11 22 -15 26 -15 12z"/>
<path d="M650 3159 c0 -5 5 -7 10 -4 6 3 10 8 10 11 0 2 -4 4 -10 4 -5 0 -10
-5 -10 -11z"/>
<path d="M4227 3152 c-15 -16 -15 -19 5 -31 17 -11 23 -10 36 2 17 17 10 47
-11 47 -8 0 -21 -8 -30 -18z m34 -15 c-1 -12 -15 -9 -19 4 -3 6 1 10 8 8 6 -3
11 -8 11 -12z"/>
<path d="M50 3123 c0 -5 9 -21 20 -38 18 -27 20 -28 20 -8 0 32 -10 53 -26 53
-8 0 -14 -3 -14 -7z"/>
<path d="M2616 3115 c4 -8 8 -15 10 -15 2 0 4 7 4 15 0 8 -4 15 -10 15 -5 0
-7 -7 -4 -15z"/>
<path d="M2555 3110 c-3 -5 -1 -10 4 -10 6 0 11 5 11 10 0 6 -2 10 -4 10 -3 0
-8 -4 -11 -10z"/>
<path d="M10 3039 c0 -5 5 -7 10 -4 6 3 10 8 10 11 0 2 -4 4 -10 4 -5 0 -10
-5 -10 -11z"/>
<path d="M4350 3015 c-7 -8 -16 -13 -20 -10 -13 8 -40 -24 -40 -46 0 -10 4
-19 10 -19 5 0 9 -30 10 -67 0 -38 0 -81 1 -98 0 -16 -1 -60 -3 -97 -2 -38 -1
-68 4 -68 4 0 8 -13 8 -30 0 -21 5 -30 16 -30 11 0 14 -5 10 -16 -4 -9 -2 -22
2 -28 16 -20 20 -55 7 -66 -9 -8 -14 -3 -19 21 -5 28 -7 29 -22 15 -14 -15
-14 -17 1 -32 19 -19 14 -40 -9 -38 -17 2 -22 -33 -18 -136 2 -34 2 -34 20
-15 32 35 43 71 27 92 -20 26 -18 31 10 31 14 0 25 -4 25 -9 0 -5 5 -9 10 -9
6 0 8 11 4 26 -6 23 -4 25 15 19 18 -5 21 -2 21 23 0 18 -9 39 -24 53 -25 24
-24 45 1 66 12 10 10 20 -16 70 -35 66 -37 75 -16 67 8 -4 15 -12 15 -19 0 -8
8 -11 20 -8 21 6 28 47 10 58 -7 4 -7 12 0 25 14 26 13 28 -11 32 l-20 3 20
22 c18 19 21 35 21 117 0 84 -2 97 -19 106 -26 14 -36 13 -51 -5z m-6 -281 c9
-24 7 -28 -9 -14 -17 14 -20 30 -6 30 5 0 12 -7 15 -16z"/>
<path d="M24 3011 c3 -5 15 -7 26 -4 28 7 25 13 -6 13 -14 0 -23 -4 -20 -9z"/>
<path d="M682 2994 c-7 -8 -17 -12 -23 -9 -5 4 -10 3 -10 -2 -1 -4 -3 -17 -4
-28 -2 -11 -7 -41 -11 -67 -7 -47 -3 -54 29 -49 15 2 6 -15 -17 -31 -21 -15
-26 -16 -36 -3 -7 8 -21 15 -32 15 -15 0 -18 -5 -13 -20 4 -13 2 -20 -6 -20
-10 0 -10 -3 -1 -12 22 -22 12 -88 -14 -88 -23 0 -16 -18 16 -42 31 -23 41
-44 15 -34 -8 3 -15 1 -15 -4 0 -5 18 -14 41 -20 30 -8 39 -15 35 -27 -5 -12
-1 -14 14 -10 13 3 23 0 27 -9 3 -8 11 -14 19 -14 8 0 14 -5 14 -11 0 -12 72
-5 94 9 6 3 29 8 51 9 22 2 42 8 43 13 2 6 10 10 18 10 10 0 12 -5 8 -12 -6
-10 -5 -10 7 -1 9 7 20 9 25 4 5 -5 27 -11 49 -14 31 -5 49 -2 74 14 28 17 46
20 101 16 37 -2 72 -7 79 -11 6 -4 17 -4 24 1 6 4 28 8 47 9 178 10 173 11
222 -16 47 -25 108 -96 108 -125 0 -8 4 -15 9 -15 8 0 26 -74 22 -97 -1 -7 5
-26 14 -42 8 -17 15 -38 15 -49 0 -10 11 -29 25 -42 14 -13 25 -28 25 -34 0
-5 10 -30 23 -55 19 -41 22 -59 19 -158 -1 -62 2 -113 6 -113 5 0 7 -18 5 -40
-2 -24 0 -40 7 -40 5 0 10 9 10 20 0 11 5 20 11 20 8 0 10 14 6 44 -5 36 -2
49 18 77 14 18 24 44 24 58 -1 15 2 85 5 156 6 116 9 132 28 146 l20 16 -23
21 -23 22 23 0 c13 0 19 4 16 10 -9 15 -15 81 -9 102 7 25 32 30 60 12 17 -11
37 -15 64 -11 24 3 41 1 44 -7 2 -6 5 -3 5 6 1 9 -5 19 -11 22 -10 5 -10 7 0
12 6 3 12 12 12 20 0 8 8 15 18 16 9 0 22 2 27 3 6 2 21 3 34 4 29 1 18 16
-12 16 -12 0 -22 6 -23 13 -1 6 -2 16 -3 21 0 5 -17 16 -36 25 -27 13 -35 23
-36 44 0 15 -1 42 -2 60 -1 19 1 36 5 39 12 7 9 23 -3 20 -17 -3 -22 46 -5 58
11 9 10 15 -11 40 -22 28 -24 29 -38 12 -7 -11 -12 -27 -10 -38 2 -10 1 -19
-3 -19 -4 0 -6 -26 -5 -57 1 -31 -2 -63 -8 -70 -6 -7 -9 -27 -5 -45 3 -22 0
-40 -9 -53 -14 -18 -16 -18 -32 -2 -10 9 -18 34 -19 55 -1 21 -4 60 -8 86 -7
47 -8 48 -28 29 -14 -12 -22 -14 -25 -6 -2 7 -11 9 -19 6 -12 -4 -13 0 -4 22
7 18 7 33 -1 47 -6 11 -8 22 -6 25 3 2 11 -5 17 -17 8 -16 15 -19 23 -11 7 7
14 5 23 -7 18 -25 27 -9 19 37 -8 46 -25 56 -25 15 0 -20 -4 -25 -16 -20 -9 3
-18 6 -21 6 -3 0 0 7 7 15 10 13 9 15 -8 15 -11 0 -27 7 -36 15 -18 19 -26 19
-26 1 0 -19 -52 -36 -73 -24 -13 7 -15 5 -11 -7 4 -9 1 -15 -7 -15 -9 0 -10
-3 -4 -8 14 -10 17 -52 4 -52 -8 0 -7 -5 1 -15 11 -13 15 -13 22 -3 7 9 8 7 6
-7 -3 -15 -11 -20 -38 -21 -45 -1 -68 11 -72 38 -4 27 -86 84 -141 99 -23 5
-58 15 -77 21 -40 13 -103 12 -108 -2 -2 -5 -27 -1 -55 9 -88 31 -235 66 -243
58 -3 -2 2 -11 10 -20 14 -13 14 -16 -1 -29 -10 -7 -14 -8 -10 -1 5 7 -2 14
-15 18 -13 4 -37 22 -54 40 -35 36 -42 35 -64 -10 -9 -16 -25 -32 -35 -34 -11
-2 -23 -8 -26 -13 -7 -10 -49 29 -49 45 0 4 -7 15 -15 24 -12 12 -19 13 -30 3
-15 -13 -19 -8 -16 23 3 21 0 21 -17 1z m-6 -132 c1 -7 0 -8 -3 -2 -2 5 -9 8
-14 4 -5 -3 -9 0 -9 6 0 15 23 7 26 -8z m-36 -132 c0 -5 -2 -10 -4 -10 -3 0
-8 5 -11 10 -3 6 -1 10 4 10 6 0 11 -4 11 -10z m1176 -15 c3 -14 13 -25 21
-25 11 0 14 -7 10 -26 -2 -14 -1 -22 3 -17 5 4 10 22 12 38 l4 30 11 -35 c5
-19 16 -34 22 -32 7 1 10 -2 7 -7 -12 -18 -16 -91 -6 -91 5 0 10 -4 10 -9 0
-15 -30 -41 -48 -41 -13 0 -13 2 3 14 17 12 14 13 -24 13 -23 0 -47 5 -54 12
-6 6 -19 11 -29 11 -20 0 -24 15 -7 26 8 4 6 10 -7 17 -13 7 -19 7 -22 -1 -2
-7 -10 -12 -18 -12 -9 0 -12 5 -8 11 3 6 0 16 -7 21 -9 6 -10 11 -3 14 8 3 9
19 3 47 -4 23 -5 44 -3 46 2 2 4 -1 4 -7 0 -7 7 -12 16 -12 12 0 14 -3 6 -13
-8 -10 -6 -13 8 -13 13 0 21 10 26 29 4 22 10 26 25 22 11 -4 19 -2 19 4 0 21
20 10 26 -14z m-1153 -12 c-7 -2 -19 -2 -25 0 -7 3 -2 5 12 5 14 0 19 -2 13
-5z m1261 -217 c-3 -8 -14 -12 -25 -9 -24 7 -25 20 -1 26 23 5 32 -1 26 -17z"/>
<path d="M1760 2699 c0 -5 5 -7 10 -4 6 3 10 8 10 11 0 2 -4 4 -10 4 -5 0 -10
-5 -10 -11z"/>
<path d="M1790 2698 c0 -10 -7 -18 -15 -18 -8 0 -15 -4 -15 -10 0 -5 11 -10
25 -10 26 0 32 14 15 40 -8 13 -10 12 -10 -2z"/>
<path d="M3490 2995 c0 -9 5 -15 11 -13 6 2 11 8 11 13 0 5 -5 11 -11 13 -6 2
-11 -4 -11 -13z"/>
<path d="M280 2991 c0 -6 5 -13 10 -16 6 -3 10 1 10 9 0 9 -4 16 -10 16 -5 0
-10 -4 -10 -9z"/>
<path d="M595 2980 c-3 -5 -1 -10 4 -10 6 0 11 5 11 10 0 6 -2 10 -4 10 -3 0
-8 -4 -11 -10z"/>
<path d="M3 2953 c-10 -26 4 -45 45 -63 l42 -19 0 35 c0 21 -4 33 -10 29 -6
-3 -7 1 -4 9 3 9 2 16 -2 17 -51 5 -67 3 -71 -8z"/>
<path d="M496 2955 c4 -8 10 -12 15 -9 14 8 10 24 -6 24 -9 0 -12 -6 -9 -15z"/>
<path d="M4220 2960 c0 -5 7 -7 15 -4 8 4 15 8 15 10 0 2 -7 4 -15 4 -8 0 -15
-4 -15 -10z"/>
<path d="M254 2919 c-1 -35 17 -34 27 2 5 19 2 25 -10 26 -11 1 -16 -8 -17
-28z"/>
<path d="M3507 2926 c-4 -15 -6 -31 -2 -34 10 -10 16 6 13 35 l-3 28 -8 -29z"/>
<path d="M423 2934 c4 -7 0 -15 -9 -18 -22 -8 -8 -26 18 -21 30 6 31 10 6 31
-12 10 -18 14 -15 8z"/>
<path d="M4233 2916 c-6 -8 -9 -17 -6 -20 4 -3 -1 -6 -11 -6 -13 0 -16 -7 -12
-27 2 -16 5 -31 5 -35 1 -5 6 -8 12 -8 6 0 9 6 6 14 -3 8 0 20 8 26 13 11 27
70 16 70 -3 -1 -11 -7 -18 -14z"/>
<path d="M3447 2913 c-13 -12 -7 -33 8 -33 8 0 15 9 15 20 0 20 -11 26 -23 13z"/>
<path d="M259 2859 c-1 -2 -3 -21 -4 -41 -5 -45 9 -50 23 -9 8 23 7 32 -4 42
-8 6 -14 10 -15 8z"/>
<path d="M2644 2837 c3 -33 12 -43 19 -23 3 8 -1 22 -8 33 -13 17 -14 16 -11
-10z"/>
<path d="M360 2841 c0 -11 29 -35 35 -29 10 9 -7 38 -21 38 -8 0 -14 -4 -14
-9z"/>
<path d="M2356 2795 c-3 -8 0 -15 6 -15 7 0 6 -5 -2 -15 -21 -25 -4 -47 33
-44 18 2 38 -1 46 -5 16 -10 31 9 31 41 0 19 -4 22 -28 17 -20 -4 -33 0 -46
15 -23 25 -32 26 -40 6z"/>
<path d="M402 2783 c5 -25 28 -28 28 -4 0 12 -6 21 -16 21 -9 0 -14 -7 -12
-17z"/>
<path d="M2564 2779 c-3 -6 -1 -16 5 -22 8 -8 11 -5 11 11 0 24 -5 28 -16 11z"/>
<path d="M4224 2778 c-4 -6 -2 -14 4 -16 28 -9 10 -38 -20 -33 -5 0 -8 -7 -8
-16 0 -13 3 -14 12 -5 17 17 48 -4 49 -36 1 -21 3 -18 9 13 4 22 4 48 -1 57
-5 9 -6 24 -3 32 7 19 -31 23 -42 4z"/>
<path d="M4082 2747 c1 -20 6 -37 10 -37 5 0 6 14 3 32 -8 46 -16 49 -13 5z"/>
<path d="M2710 2745 c9 -10 9 -15 1 -15 -6 0 -11 -9 -11 -20 0 -14 -5 -18 -16
-13 -12 4 -15 2 -12 -8 3 -8 15 -14 27 -14 33 -1 41 -22 41 -109 0 -44 2 -77
4 -75 2 2 6 49 10 103 3 55 10 104 16 110 16 16 11 36 -9 36 -11 0 -23 5 -26
10 -3 6 -13 10 -22 10 -13 0 -13 -3 -3 -15z"/>
<path d="M3576 2751 c-3 -5 1 -11 9 -15 9 -3 15 0 15 9 0 16 -16 20 -24 6z"/>
<path d="M3740 2728 c0 -18 4 -38 8 -45 11 -17 28 -2 27 22 -3 48 -6 55 -20
55 -10 0 -15 -10 -15 -32z"/>
<path d="M368 2733 c7 -3 16 -2 19 1 4 3 -2 6 -13 5 -11 0 -14 -3 -6 -6z"/>
<path d="M96 2721 c-4 -7 -5 -15 -2 -18 9 -9 19 4 14 18 -4 11 -6 11 -12 0z"/>
<path d="M3541 2716 c-14 -16 -9 -46 7 -46 5 0 15 7 22 16 11 12 11 18 -2 30
-13 13 -16 13 -27 0z"/>
<path d="M436 2705 c4 -8 10 -15 14 -15 4 0 10 7 14 15 4 10 -1 15 -14 15 -13
0 -18 -5 -14 -15z"/>
<path d="M153 2693 c-7 -3 -13 -20 -13 -38 0 -27 4 -33 25 -37 25 -5 34 5 15
17 -14 9 -13 26 2 23 6 -2 13 4 15 13 4 17 -22 29 -44 22z"/>
<path d="M409 2658 c-9 -17 -9 -24 4 -33 10 -7 14 -20 10 -33 -3 -13 -1 -22 6
-22 7 0 9 -4 6 -10 -10 -16 -35 -12 -35 6 0 11 -6 13 -19 9 -11 -3 -22 -1 -26
5 -9 15 -42 12 -72 -7 -26 -17 -26 -17 -14 6 9 16 9 26 1 36 -11 13 -50 9 -50
-5 0 -5 -14 -11 -31 -15 -16 -4 -29 -11 -27 -17 2 -5 7 -8 11 -6 15 6 29 -31
18 -49 -9 -16 -11 -15 -20 8 -11 30 -47 44 -55 22 -4 -8 -4 -19 0 -24 3 -5 1
-9 -4 -9 -6 0 -8 -10 -5 -22 4 -18 3 -20 -6 -8 -5 8 -8 24 -5 36 3 11 -1 26
-9 32 -12 10 -16 8 -20 -9 -6 -24 -27 -17 -27 9 0 9 -9 28 -20 42 l-20 25 0
-51 c0 -51 0 -51 40 -63 52 -15 52 -34 0 -29 -33 3 -40 1 -40 -15 0 -10 11
-28 24 -41 14 -12 27 -35 29 -52 2 -17 11 -30 20 -32 13 -3 17 4 17 32 0 35 1
36 41 36 25 0 38 -4 34 -10 -11 -17 5 -69 23 -74 9 -3 42 -2 72 2 66 10 107
-3 102 -31 -3 -17 -14 -18 -126 -16 -66 2 -127 0 -134 -5 -6 -4 -12 -3 -12 2
0 5 -20 10 -45 10 l-45 2 0 -70 c0 -40 4 -70 10 -70 6 0 10 22 10 49 l0 48 42
5 c24 3 100 6 170 7 l127 2 -5 -25 c-3 -21 0 -26 16 -26 11 0 20 -6 20 -12 1
-7 7 -2 15 12 7 14 17 24 22 23 4 -1 7 11 5 27 -2 21 2 30 17 35 12 3 21 13
21 21 0 8 7 27 16 42 16 27 16 27 -2 6 -11 -12 -30 -27 -43 -34 l-23 -12 17
29 c18 29 85 79 85 63 0 -6 -5 -10 -12 -10 -6 0 -8 -3 -4 -7 3 -4 20 9 37 28
17 19 38 43 48 54 32 37 36 49 14 43 -11 -3 -28 1 -38 8 -10 8 -28 14 -40 14
-14 0 -31 14 -48 40 -14 22 -22 40 -17 40 5 0 13 -8 19 -17 5 -10 13 -15 17
-10 4 4 -1 16 -10 26 -10 11 -15 25 -11 33 6 10 5 11 -6 1 -19 -18 -29 -16
-29 7 0 26 -16 25 -31 -2z m121 -138 c0 -6 -7 -13 -15 -16 -8 -4 -13 -10 -10
-14 3 -5 1 -11 -5 -15 -5 -3 -10 -1 -10 5 0 8 -9 10 -24 6 -20 -5 -23 -3 -19
13 3 13 11 17 29 13 14 -2 24 0 24 7 0 6 7 11 15 11 8 0 15 -5 15 -10z m-140
-30 c12 -8 11 -10 -7 -10 -12 0 -25 5 -28 10 -8 13 15 13 35 0z m40 -44 c0 -3
-4 -8 -10 -11 -5 -3 -10 -1 -10 4 0 6 5 11 10 11 6 0 10 -2 10 -4z"/>
<path d="M2921 2663 c-6 -10 -11 -12 -11 -5 0 8 -16 12 -46 12 -29 0 -43 -4
-39 -11 4 -6 13 -8 21 -5 7 3 23 -3 35 -13 18 -15 22 -27 21 -72 -1 -86 2 -91
60 -88 45 3 53 0 74 -26 12 -16 20 -33 17 -38 -3 -6 -1 -7 5 -3 6 4 9 13 5 21
-3 8 0 15 7 15 6 0 8 5 3 13 -4 6 5 4 20 -6 20 -13 27 -14 25 -5 -2 7 2 15 7
17 6 3 12 -7 15 -21 4 -24 7 -25 23 -13 13 9 20 30 22 71 2 31 9 60 16 64 20
13 2 40 -26 38 -18 -2 -25 -8 -25 -24 0 -12 -7 -27 -15 -34 -8 -7 -15 -19 -15
-26 0 -24 -35 -15 -65 16 -16 17 -23 30 -17 30 20 0 14 35 -10 62 -43 48 -89
61 -107 31z"/>
<path d="M3080 2675 c0 -3 16 -11 36 -20 19 -8 33 -19 29 -25 -3 -5 -1 -10 4
-10 14 0 14 16 1 41 -7 12 -21 19 -40 19 -17 0 -30 -2 -30 -5z"/>
<path d="M4201 2664 c0 -11 3 -14 6 -6 3 7 2 16 -1 19 -3 4 -6 -2 -5 -13z"/>
<path d="M2302 2665 c11 -11 58 -15 58 -5 0 5 -14 10 -32 10 -17 0 -29 -2 -26
-5z"/>
<path d="M3600 2634 c0 -8 5 -12 10 -9 6 3 10 10 10 16 0 5 -4 9 -10 9 -5 0
-10 -7 -10 -16z"/>
<path d="M2557 2613 c-4 -3 -7 -14 -7 -24 0 -18 31 -20 37 -2 5 13 -22 35 -30
26z"/>
<path d="M3250 2601 c13 -10 13 -13 -2 -21 -18 -11 -13 -53 6 -47 17 6 14 70
-4 74 -13 4 -13 3 0 -6z"/>
<path d="M3410 2600 c0 -5 5 -10 10 -10 6 0 10 5 10 10 0 6 -4 10 -10 10 -5 0
-10 -4 -10 -10z"/>
<path d="M4161 2584 c0 -11 3 -14 6 -6 3 7 2 16 -1 19 -3 4 -6 -2 -5 -13z"/>
<path d="M2375 2570 c3 -5 8 -10 11 -10 2 0 4 5 4 10 0 6 -5 10 -11 10 -5 0
-7 -4 -4 -10z"/>
<path d="M3358 2540 c-24 -27 -26 -40 -6 -40 4 0 8 6 8 14 0 7 10 20 22 28 12
8 17 17 12 21 -6 3 -22 -7 -36 -23z"/>
<path d="M3777 2564 c-3 -4 0 -16 7 -28 14 -23 15 -35 3 -52 -4 -7 0 -17 8
-24 13 -11 15 -8 15 16 0 16 3 39 6 51 4 15 0 24 -14 32 -11 6 -22 8 -25 5z"/>
<path d="M4153 2548 c-18 -6 -33 -15 -33 -20 0 -5 -10 -6 -22 -3 -16 4 -19 4
-9 -3 7 -5 11 -14 7 -20 -3 -6 -2 -13 4 -17 14 -9 50 13 50 31 0 10 5 14 15
10 8 -3 22 -9 30 -12 11 -5 15 1 15 20 0 28 -7 30 -57 14z"/>
<path d="M2377 2530 c3 -11 7 -20 9 -20 2 0 4 9 4 20 0 11 -4 20 -9 20 -5 0
-7 -9 -4 -20z"/>
<path d="M4300 2531 c0 -5 5 -13 10 -16 6 -3 10 -2 10 4 0 5 -4 13 -10 16 -5
3 -10 2 -10 -4z"/>
<path d="M4056 2482 c-23 -45 -42 -57 -55 -35 -6 10 -11 13 -11 7 0 -7 -8 -11
-17 -10 -10 0 -18 -5 -17 -11 1 -7 2 -22 3 -33 1 -25 45 -28 67 -5 9 8 24 15
34 15 19 0 38 32 21 38 -6 2 -8 16 -4 33 7 37 -2 37 -21 1z"/>
<path d="M2370 2465 c0 -8 -4 -15 -10 -15 -5 0 -10 -4 -10 -10 0 -5 7 -10 15
-10 9 0 15 9 15 25 0 14 -2 25 -5 25 -3 0 -5 -7 -5 -15z"/>
<path d="M3302 2413 c-9 -31 -10 -49 -3 -56 15 -15 18 -9 23 51 6 65 -4 67
-20 5z"/>
<path d="M2270 2435 c0 -8 6 -15 14 -15 22 0 28 17 10 24 -22 9 -24 8 -24 -9z"/>
<path d="M2648 2433 c7 -3 16 -2 19 1 4 3 -2 6 -13 5 -11 0 -14 -3 -6 -6z"/>
<path d="M2748 2433 c7 -3 16 -2 19 1 4 3 -2 6 -13 5 -11 0 -14 -3 -6 -6z"/>
<path d="M2830 2430 c0 -5 5 -10 10 -10 6 0 10 5 10 10 0 6 -4 10 -10 10 -5 0
-10 -4 -10 -10z"/>
<path d="M3760 2393 c0 -7 -7 -13 -15 -13 -15 0 -32 -46 -21 -57 3 -3 12 0 21
7 21 18 19 3 -4 -21 -10 -11 -31 -22 -46 -24 -15 -1 -30 -8 -34 -14 -5 -7 -14
-5 -29 9 -27 26 -34 25 -30 -2 2 -13 13 -27 26 -33 20 -9 31 -26 15 -24 -21 3
-53 -15 -51 -29 2 -8 -3 -17 -11 -20 -10 -3 -12 1 -8 17 4 16 1 21 -14 21 -18
0 -23 10 -20 37 2 17 -16 25 -25 12 -5 -8 -12 -4 -24 11 -14 19 -21 21 -36 12
-18 -11 -18 -11 1 -13 13 -1 10 -3 -9 -8 -44 -9 -45 -31 -2 -31 47 0 67 -31
34 -54 -29 -21 -35 -20 -41 5 -8 29 -27 14 -27 -20 0 -19 8 -32 26 -41 32 -18
56 -4 65 37 7 36 17 53 31 53 6 0 8 -13 6 -30 -3 -20 1 -35 12 -45 21 -19 90
-27 108 -12 10 8 21 6 44 -7 26 -16 34 -16 54 -5 19 10 27 10 36 1 20 -20 26
-14 30 33 3 41 1 45 -19 45 -12 0 -24 4 -28 10 -3 5 -15 0 -26 -11 -28 -28
-33 -18 -12 25 15 29 22 35 41 31 19 -5 22 -1 22 27 0 18 3 42 6 54 3 12 -1
27 -10 37 -19 19 -20 34 -3 40 6 3 2 4 -10 4 -13 -1 -23 -7 -23 -14z m-120
-199 c0 -8 -4 -12 -10 -9 -5 3 -10 10 -10 16 0 5 5 9 10 9 6 0 10 -7 10 -16z"/>
<path d="M4173 2363 c0 -64 -8 -77 -33 -56 -10 9 -17 20 -14 25 3 4 -2 5 -10
2 -8 -3 -18 -15 -22 -26 -3 -11 -9 -16 -13 -11 -12 19 -39 21 -67 7 -16 -8
-37 -13 -48 -10 -31 8 -57 -21 -46 -50 10 -25 -9 -54 -36 -54 -8 0 -14 -4 -14
-10 0 -5 5 -10 10 -10 16 0 12 -32 -7 -52 -16 -18 -16 -19 10 -9 18 7 28 7 33
0 4 -6 13 -4 25 7 18 16 19 16 13 1 -4 -11 -1 -17 8 -17 10 0 13 10 10 35 -5
46 3 75 28 103 26 28 29 28 62 -3 29 -27 28 -40 -4 -103 -17 -32 5 -55 27 -26
13 17 14 17 15 2 0 -44 90 -52 127 -12 23 25 25 34 26 145 1 84 -2 122 -11
131 -10 10 -15 10 -22 -2 -8 -13 -10 -12 -10 3 0 10 -4 16 -9 12 -6 -3 -14 2
-19 11 -7 12 -9 3 -9 -33z m-3 -113 c0 -5 7 -10 15 -10 17 0 20 -16 6 -25 -6
-3 -15 3 -21 12 -8 13 -13 14 -16 5 -8 -17 -24 -5 -17 13 6 17 33 21 33 5z
m60 0 c0 -5 -4 -10 -10 -10 -5 0 -10 5 -10 10 0 6 5 10 10 10 6 0 10 -4 10
-10z"/>
<path d="M4059 2378 c-6 -25 -6 -38 1 -38 12 0 20 29 10 35 -6 4 -10 5 -11 3z"/>
<path d="M2062 2362 c-7 -5 -10 -16 -6 -25 3 -9 10 -15 14 -12 5 3 11 1 15 -5
10 -16 22 -12 28 9 8 32 -22 51 -51 33z"/>
<path d="M3048 2362 c-10 -2 -18 -8 -18 -13 0 -11 11 -11 30 1 18 11 11 18
-12 12z"/>
<path d="M3844 2294 c-4 -27 -2 -50 4 -56 17 -17 32 1 26 32 -5 22 -1 31 15
42 29 18 26 28 -8 28 -28 0 -30 -3 -37 -46z"/>
<path d="M4380 2285 c-13 -35 -13 -42 5 -49 8 -3 15 -14 15 -25 0 -11 5 -23
10 -26 17 -10 12 94 -5 111 -13 14 -16 12 -25 -11z"/>
<path d="M2030 2265 c0 -27 9 -32 28 -13 8 8 9 15 1 25 -17 20 -29 15 -29 -12z"/>
<path d="M3200 2281 c0 -5 -9 -13 -21 -16 -11 -4 -18 -12 -16 -18 2 -7 -2 -26
-10 -44 -16 -41 -16 -43 2 -43 11 0 15 -12 15 -44 0 -24 3 -51 6 -60 11 -28
24 -17 24 19 0 23 5 35 14 35 14 0 46 41 46 59 0 6 -13 29 -29 53 -16 23 -27
48 -24 55 3 7 2 13 -1 13 -3 0 -6 -4 -6 -9z m0 -31 c0 -5 -5 -10 -11 -10 -5 0
-7 5 -4 10 3 6 8 10 11 10 2 0 4 -4 4 -10z"/>
<path d="M3567 2283 c-4 -6 0 -19 8 -29 11 -15 14 -16 15 -4 0 21 -16 44 -23
33z"/>
<path d="M2095 2269 c-4 -6 -5 -13 -2 -16 7 -7 27 6 27 18 0 12 -17 12 -25 -2z"/>
<path d="M3041 2261 c-14 -12 -31 -19 -37 -17 -14 5 -47 -51 -38 -65 3 -5 14
-4 25 1 21 12 43 4 34 -11 -4 -5 1 -9 9 -9 11 0 16 10 16 33 0 18 5 38 11 44
6 6 9 19 7 28 -3 15 -6 15 -27 -4z"/>
<path d="M3292 2272 c-10 -7 -6 -15 14 -35 28 -28 49 -36 41 -14 -2 6 -10 11
-16 10 -15 -4 -14 20 1 35 9 9 8 12 -7 12 -11 0 -26 -4 -33 -8z"/>
<path d="M2486 2246 c3 -9 11 -16 16 -16 13 0 5 23 -10 28 -7 2 -10 -2 -6 -12z"/>
<path d="M2921 2213 c-7 -8 -11 -16 -8 -19 2 -2 10 2 17 11 17 20 9 27 -9 8z"/>
<path d="M2234 2211 c3 -5 -1 -22 -9 -37 -9 -19 -11 -32 -5 -38 6 -6 11 -26
11 -45 1 -29 3 -25 11 22 7 38 15 57 24 57 12 0 11 5 -2 25 -15 22 -43 38 -30
16z"/>
<path d="M2505 2200 c-22 -24 -35 -26 -35 -4 0 10 -7 14 -22 12 -13 -2 -22 -6
-20 -10 1 -5 2 -22 2 -39 0 -29 2 -30 34 -26 44 6 55 13 67 45 13 34 -3 48
-26 22z"/>
<path d="M2580 2206 c0 -9 7 -16 16 -16 17 0 14 22 -4 28 -7 2 -12 -3 -12 -12z"/>
<path d="M2651 2204 c0 -11 3 -14 6 -6 3 7 2 16 -1 19 -3 4 -6 -2 -5 -13z"/>
<path d="M301 2188 c-12 -30 1 -43 28 -29 18 10 19 14 8 31 -16 26 -26 25 -36
-2z"/>
<path d="M4002 2155 c-2 -30 1 -55 6 -55 5 0 9 17 10 38 0 20 1 43 3 51 2 7 0
15 -6 17 -6 2 -11 -20 -13 -51z"/>
<path d="M1967 2170 c-5 -23 -2 -35 13 -50 22 -22 35 -27 24 -8 -4 6 -8 27 -8
46 -1 45 -21 53 -29 12z"/>
<path d="M2095 2179 c-4 -5 -13 -8 -21 -5 -8 3 -14 1 -14 -4 0 -18 20 -21 41
-7 12 9 16 18 10 21 -5 4 -13 1 -16 -5z"/>
<path d="M365 2170 c-3 -5 -1 -10 4 -10 6 0 11 5 11 10 0 6 -2 10 -4 10 -3 0
-8 -4 -11 -10z"/>
<path d="M4374 2172 c-6 -4 -14 -28 -18 -54 -8 -56 7 -64 42 -23 26 29 29 70
6 79 -19 7 -16 7 -30 -2z"/>
<path d="M4330 2139 c0 -11 4 -18 10 -14 5 3 7 12 3 20 -7 21 -13 19 -13 -6z"/>
<path d="M76 2143 c7 -4 14 -17 17 -28 5 -16 5 -15 4 4 -1 14 -9 26 -17 28
-10 3 -11 2 -4 -4z"/>
<path d="M3335 2127 c-13 -8 -20 -23 -20 -41 0 -39 20 -44 33 -9 5 15 13 36
17 46 8 19 -1 20 -30 4z"/>
<path d="M2080 2109 c0 -11 5 -17 10 -14 6 3 10 13 10 21 0 8 -4 14 -10 14 -5
0 -10 -9 -10 -21z"/>
<path d="M2500 2120 c0 -5 5 -10 10 -10 6 0 10 5 10 10 0 6 -4 10 -10 10 -5 0
-10 -4 -10 -10z"/>
<path d="M3600 2062 c0 -22 5 -32 16 -32 11 0 14 6 9 23 -12 38 -25 43 -25 9z"/>
<path d="M3746 2062 c-5 -18 -5 -36 -2 -39 7 -7 19 43 13 59 -2 7 -7 -2 -11
-20z"/>
<path d="M4006 2074 c-9 -25 -7 -114 3 -114 5 0 9 29 9 65 0 68 -2 75 -12 49z"/>
<path d="M0 2061 c0 -18 9 -20 98 -23 129 -4 144 -1 129 23 -10 17 -25 19
-119 19 -100 0 -108 -1 -108 -19z"/>
<path d="M3405 2069 c-4 -6 -5 -12 -2 -15 2 -3 7 2 10 11 7 17 1 20 -8 4z"/>
<path d="M3882 2050 c0 -19 2 -27 5 -17 2 9 2 25 0 35 -3 9 -5 1 -5 -18z"/>
<path d="M3790 2037 c0 -26 4 -37 14 -37 12 0 13 6 4 33 -15 45 -18 46 -18 4z"/>
<path d="M4046 2032 c-8 -52 -7 -72 3 -72 10 0 19 100 10 106 -4 2 -9 -13 -13
-34z"/>
<path d="M371 2047 c-13 -16 -7 -167 8 -196 6 -10 7 -21 4 -25 -3 -3 -2 -6 4
-6 7 0 11 41 11 120 0 66 -4 120 -8 120 -4 0 -13 -6 -19 -13z"/>
<path d="M4343 2038 c-6 -7 -14 -32 -18 -55 -5 -34 -4 -43 8 -43 10 0 17 16
21 51 8 55 5 67 -11 47z"/>
<path d="M4157 2020 c8 -31 23 -34 23 -6 0 16 -6 26 -14 26 -9 0 -12 -7 -9
-20z"/>
<path d="M3880 1996 c0 -9 5 -16 10 -16 6 0 10 4 10 9 0 6 -4 13 -10 16 -5 3
-10 -1 -10 -9z"/>
<path d="M1248 1972 c-21 -9 -40 -22 -42 -28 -5 -13 -7 -13 214 2 l105 7 -38
17 c-53 24 -189 25 -239 2z"/>
<path d="M737 1943 c-37 -6 -24 -23 19 -23 19 0 34 -4 34 -8 0 -5 -35 -10 -77
-10 -124 -3 -226 -30 -179 -48 21 -8 20 -20 -1 -28 -10 -3 -25 -11 -35 -18
-13 -9 -20 -9 -32 1 -20 17 -9 43 17 39 11 -2 22 3 25 11 3 10 -2 11 -19 6
-33 -11 -78 -45 -83 -64 -19 -69 -26 -140 -14 -148 5 -2 8 -18 8 -34 0 -65 41
-127 116 -179 36 -24 53 -28 120 -30 104 -3 114 -2 114 13 0 8 18 28 40 46 49
39 138 155 147 190 3 14 9 28 12 31 4 3 12 16 19 30 12 25 12 25 7 -5 -6 -29
-5 -28 19 10 14 22 30 55 37 73 6 18 15 30 20 27 5 -4 9 1 9 10 0 12 -5 15
-16 11 -46 -17 -64 -18 -64 -2 0 9 6 19 13 22 8 3 14 11 14 19 0 12 -19 15
-99 15 -59 0 -98 4 -98 10 0 6 31 10 73 10 45 0 66 4 57 9 -18 11 -164 21
-203 14z"/>
<path d="M1330 1920 c-25 -5 -74 -9 -110 -9 -81 -1 -110 -9 -104 -27 14 -48
15 -49 23 -35 6 9 11 10 15 2 4 -6 2 -11 -3 -11 -16 0 -13 -91 4 -120 17 -30
19 -44 5 -35 -5 3 -10 4 -10 1 0 -12 34 -76 40 -76 4 0 12 -17 19 -37 13 -38
46 -71 79 -78 9 -2 26 -7 37 -11 20 -7 8 6 -50 55 -11 9 -29 28 -40 41 l-20
25 24 -20 c14 -11 32 -27 41 -36 35 -34 107 -77 153 -93 92 -31 167 -15 237
50 56 53 71 94 71 204 0 106 -23 150 -98 186 -45 23 -69 27 -161 30 -59 1
-127 -1 -152 -6z m-130 -282 c0 -6 -7 -5 -15 2 -8 7 -15 17 -15 22 0 6 7 5 15
-2 8 -7 15 -17 15 -22z"/>
<path d="M1083 1826 c9 -7 17 -21 17 -30 0 -9 5 -16 11 -16 7 0 9 9 5 23 -3
12 -6 25 -6 30 0 4 -10 7 -22 7 -21 -1 -22 -2 -5 -14z"/>
<path d="M1913 1817 c-19 -24 -22 -47 -9 -79 7 -18 16 -42 20 -53 7 -18 8 -18
16 -4 5 9 12 41 16 72 6 49 4 56 -14 66 -15 8 -22 7 -29 -2z"/>
<path d="M1830 1656 c0 -8 8 -22 17 -32 11 -11 17 -31 16 -55 -2 -38 10 -53
20 -26 6 15 -6 98 -17 115 -10 17 -36 15 -36 -2z"/>
<path d="M2368 1513 c7 -3 16 -2 19 1 4 3 -2 6 -13 5 -11 0 -14 -3 -6 -6z"/>
<path d="M2408 1513 c7 -3 16 -2 19 1 4 3 -2 6 -13 5 -11 0 -14 -3 -6 -6z"/>
<path d="M825 1490 c-3 -5 -1 -10 4 -10 6 0 11 5 11 10 0 6 -2 10 -4 10 -3 0
-8 -4 -11 -10z"/>
<path d="M1150 1341 c-8 -5 -18 -7 -22 -5 -4 3 -8 0 -8 -6 0 -6 -5 -8 -11 -4
-6 3 -24 -3 -39 -14 l-28 -21 -37 24 c-20 14 -46 25 -59 25 -22 0 -76 -43 -76
-61 0 -12 38 -30 58 -28 9 1 24 -1 32 -4 22 -8 79 -18 130 -22 48 -4 100 10
113 32 4 7 21 13 37 13 16 0 41 5 56 11 l28 10 -44 26 c-50 28 -107 39 -130
24z"/>
<path d="M1410 1322 c0 -4 27 -32 60 -62 33 -30 60 -60 60 -67 0 -6 7 -16 16
-21 13 -7 14 -13 6 -28 -9 -14 -12 -15 -12 -4 0 12 -3 11 -11 -3 -12 -21 -4
-38 16 -30 11 3 15 -2 15 -18 l1 -24 14 25 c8 14 14 37 15 51 0 25 -31 76 -56
91 -6 4 -29 23 -50 43 -44 41 -74 60 -74 47z"/>
<path d="M705 1280 c-76 -22 -130 -90 -119 -151 10 -56 16 -67 23 -40 8 32 28
38 36 11 9 -28 24 -16 23 18 -1 15 4 37 9 47 6 11 8 26 5 34 -2 7 -1 16 4 20
5 3 21 20 37 37 27 30 22 36 -18 24z"/>
<path d="M1130 1109 c-19 -5 -75 -11 -125 -13 -97 -4 -275 -34 -275 -46 0 -16
71 -70 92 -70 15 0 18 3 10 13 -13 15 1 43 16 33 6 -3 13 -2 16 3 4 5 36 9 74
9 37 0 74 2 82 6 8 3 35 6 60 5 67 -1 123 5 138 14 7 5 35 6 62 2 37 -5 50
-11 50 -23 0 -14 2 -14 9 -3 16 24 33 3 19 -23 -16 -29 -78 -82 -78 -66 0 7
-8 6 -22 -4 -17 -12 -25 -13 -36 -4 -10 9 -15 9 -20 1 -4 -7 -25 -13 -47 -15
-22 -2 -40 -7 -40 -13 0 -17 64 -17 123 1 95 28 138 53 187 106 41 45 45 53
31 66 -25 25 -254 40 -326 21z"/>
<path d="M1740 1039 c0 -5 5 -7 10 -4 6 3 10 8 10 11 0 2 -4 4 -10 4 -5 0 -10
-5 -10 -11z"/>
<path d="M465 970 c-6 -46 12 -117 37 -148 7 -8 17 -22 23 -32 38 -65 222
-272 230 -260 2 3 15 -5 29 -17 14 -13 29 -22 34 -21 4 0 15 -2 25 -7 37 -16
26 4 -25 46 -78 64 -181 169 -203 207 -11 17 -23 32 -27 32 -4 0 -8 6 -8 14 0
7 -7 19 -16 27 -23 19 -53 82 -60 128 -4 22 -12 48 -19 58 -12 16 -14 12 -20
-27z"/>
<path d="M980 926 c0 -9 39 -13 51 -5 10 6 4 9 -18 9 -18 0 -33 -2 -33 -4z"/>
<path d="M1050 920 c0 -5 7 -10 15 -10 8 0 15 5 15 10 0 6 -7 10 -15 10 -8 0
-15 -4 -15 -10z"/>
<path d="M402 878 c7 -15 15 -23 17 -17 2 6 -4 18 -13 27 -15 15 -15 15 -4
-10z"/>
<path d="M1661 880 c-1 -9 -14 -30 -30 -47 -16 -18 -26 -34 -23 -37 3 -3 0 -6
-6 -6 -6 0 -13 -9 -17 -20 -3 -10 -28 -42 -56 -70 -27 -27 -49 -53 -49 -57 0
-14 -103 -105 -133 -118 -46 -18 -193 -14 -214 7 -12 13 -20 14 -33 6 -10 -6
-25 -8 -36 -3 -24 10 -88 10 -137 1 -36 -7 -38 -9 -32 -34 7 -28 26 -48 93
-94 79 -55 40 -63 -103 -22 -50 14 -100 28 -112 31 -28 7 -141 125 -188 197
-10 14 -24 26 -33 26 -12 0 -10 -7 10 -28 13 -15 34 -43 46 -62 12 -19 32 -46
44 -60 31 -33 63 -89 72 -124 6 -25 4 -28 -11 -23 -43 13 -129 53 -136 64 -21
32 -71 74 -84 69 -8 -3 -17 -6 -20 -6 -4 0 2 -9 12 -20 10 -11 23 -20 29 -20
6 0 20 -14 31 -30 11 -16 26 -30 33 -30 7 0 23 -9 35 -21 12 -11 51 -34 87
-51 36 -17 75 -35 88 -41 17 -8 22 -17 18 -32 -3 -11 -6 -28 -6 -37 0 -32 -43
-31 -118 3 -40 17 -72 35 -72 40 0 4 -8 10 -17 13 -10 3 -32 19 -49 35 -18 17
-34 28 -36 26 -2 -2 -12 9 -23 26 -12 16 -26 27 -34 24 -8 -3 -11 0 -8 8 3 8
0 14 -6 14 -7 0 -21 4 -32 8 -16 5 -17 5 -5 -4 8 -6 12 -11 8 -11 -4 0 0 -9 9
-19 9 -11 20 -18 25 -15 4 3 8 1 8 -5 0 -6 17 -25 37 -43 77 -68 101 -98 96
-116 -4 -15 4 -28 47 -80 6 -6 8 -12 5 -12 -4 0 4 -18 16 -40 l23 -40 943 0
c646 0 943 3 943 10 0 6 -9 28 -20 50 -11 22 -20 51 -20 65 0 39 -26 92 -52
106 -12 7 -41 29 -63 51 -41 40 -311 179 -370 191 -16 3 -24 4 -17 1 6 -3 12
-10 12 -15 0 -12 -21 -11 -40 1 -13 9 -13 11 -1 19 11 7 4 11 -25 17 -21 4
-51 8 -66 8 -16 1 -28 4 -28 8 0 3 -12 9 -27 13 -16 3 -42 18 -59 33 -26 22
-32 37 -38 84 -3 32 -13 79 -22 105 -24 69 -62 150 -63 133z m53 -264 c-1 -17
-3 -37 -3 -43 -1 -7 -10 -13 -22 -13 -11 0 -17 -5 -14 -10 3 -6 0 -17 -9 -25
-9 -9 -17 -11 -21 -5 -3 5 -1 10 5 10 7 0 10 6 7 13 -3 7 4 19 14 25 10 7 19
21 19 31 0 11 5 23 10 26 6 4 8 16 5 28 -5 16 -4 18 3 8 5 -7 8 -27 6 -45z
m-84 -111 c11 -13 10 -14 -4 -9 -9 3 -16 1 -16 -5 0 -6 -7 -11 -15 -11 -12 0
-12 3 2 20 21 24 18 23 33 5z m-105 -25 c-4 -6 6 -11 22 -11 21 -1 23 -3 8 -6
-11 -3 -32 -14 -47 -24 -31 -23 -48 -24 -48 -4 0 17 29 34 48 28 8 -3 10 1 6
11 -3 9 -1 16 6 16 6 0 8 -4 5 -10z m-161 -56 c9 -23 8 -24 -13 -24 -10 0 -25
8 -32 17 -8 10 -9 14 -2 10 6 -4 14 -3 18 3 9 15 22 12 29 -6z m71 -21 c17
-35 17 -37 -1 -50 -17 -13 -17 -16 -4 -26 12 -9 14 -27 12 -70 -4 -55 10 -93
28 -82 13 8 60 -17 53 -28 -3 -6 -8 -6 -12 0 -3 6 -21 13 -38 16 -26 5 -33 3
-33 -9 0 -8 5 -12 11 -9 7 5 6 0 -1 -11 -12 -19 -61 -26 -76 -11 -4 4 -12 7
-18 7 -7 0 -6 -3 1 -8 9 -6 7 -11 -7 -20 -26 -16 -25 -2 0 31 16 20 20 40 20
106 0 64 3 82 16 89 13 7 16 20 12 61 -6 62 11 69 37 14z m265 -33 c0 -5 -4
-10 -10 -10 -5 0 -10 5 -10 10 0 6 5 10 10 10 6 0 10 -4 10 -10z m-110 -22 c0
10 4 9 16 -2 8 -9 20 -14 25 -11 5 4 9 -3 9 -15 0 -13 -4 -19 -11 -14 -8 4 -9
-1 -4 -17 5 -18 -1 -13 -24 16 -17 22 -30 45 -31 50 0 6 5 3 10 -5 7 -11 10
-12 10 -2z m104 -17 c3 -5 -1 -11 -9 -14 -9 -4 -12 -1 -8 9 6 16 10 17 17 5z
m-28 -53 c-9 -5 -16 -17 -17 -26 0 -9 -3 -12 -5 -5 -7 17 15 55 28 47 7 -4 5
-10 -6 -16z m-526 -219 c0 -16 -4 -29 -9 -29 -5 0 -16 -3 -25 -6 -10 -4 -16
-1 -16 9 0 9 -5 19 -12 23 -7 4 -8 3 -4 -4 9 -14 -3 -15 -24 -2 -13 8 -12 11
5 24 11 9 16 16 10 17 -5 1 4 5 20 8 38 9 55 -3 55 -40z m162 21 c-2 -17 -5
-30 -7 -30 -2 0 -5 13 -7 30 -3 19 0 30 7 30 7 0 10 -11 7 -30z"/>
<path d="M1392 322 c-15 -10 -5 -45 12 -39 13 4 21 47 9 47 -4 0 -14 -4 -21
-8z"/>
<path d="M1395 170 c3 -5 8 -10 11 -10 2 0 4 5 4 10 0 6 -5 10 -11 10 -5 0 -7
-4 -4 -10z"/>
<path d="M430 816 c13 -35 61 -106 71 -106 14 0 11 9 -11 32 -10 11 -26 36
-35 54 -19 41 -39 56 -25 20z"/>
<path d="M957 793 c-3 -5 14 -20 38 -33 41 -22 47 -23 99 -11 53 12 75 25 62
38 -9 10 -194 15 -199 6z"/>
<path d="M522 676 c6 -14 15 -26 20 -26 10 0 -7 36 -22 45 -6 4 -5 -5 2 -19z"/>
<path d="M13 683 c-17 -6 -16 -53 2 -77 14 -19 15 -18 37 9 13 16 26 39 30 52
6 21 3 23 -25 22 -18 0 -38 -3 -44 -6z"/>
<path d="M137 658 c-32 -28 -35 -53 -7 -68 16 -9 27 -4 62 27 24 21 45 39 47
40 8 6 -4 11 -39 18 -29 5 -41 2 -63 -17z"/>
<path d="M56 544 c-5 -17 -13 -24 -31 -24 l-25 0 0 -170 c0 -93 4 -170 9 -170
15 0 36 -61 23 -69 -7 -4 -1 -21 19 -50 16 -24 29 -48 29 -53 0 -4 108 -8 240
-8 139 0 240 4 240 9 0 10 -31 72 -40 81 -5 5 -9 27 -12 58 -1 6 -8 12 -16 12
-8 0 -12 6 -9 13 3 7 -4 19 -14 25 -10 7 -19 19 -19 27 0 8 -4 15 -8 15 -5 0
-23 20 -40 45 -18 26 -37 43 -42 40 -6 -4 -7 1 -3 11 5 13 2 15 -15 9 -16 -5
-22 -2 -22 10 0 10 5 14 13 9 9 -5 9 -4 0 6 -7 7 -27 13 -45 12 -32 -1 -33 0
-12 16 11 9 31 24 45 33 36 25 18 31 -24 9 -34 -19 -37 -19 -38 -3 -1 41 -11
118 -15 122 -13 13 -28 -25 -29 -71 0 -28 -5 -53 -11 -55 -6 -2 -40 28 -77 66
-62 66 -66 68 -71 45z"/>
<path d="M4205 280 c3 -5 10 -10 16 -10 5 0 9 5 9 10 0 6 -7 10 -16 10 -8 0
-12 -4 -9 -10z"/>
<path d="M3681 264 c0 -11 3 -14 6 -6 3 7 2 16 -1 19 -3 4 -6 -2 -5 -13z"/>
<path d="M3070 225 c0 -20 26 -25 47 -10 20 16 20 16 -19 21 -18 2 -28 -2 -28
-11z"/>
<path d="M3498 213 c6 -2 18 -2 25 0 6 3 1 5 -13 5 -14 0 -19 -2 -12 -5z"/>
<path d="M4087 204 c-3 -3 -12 -6 -20 -8 -14 -2 -47 -30 -47 -40 0 -2 14 2 30
11 17 8 37 12 45 9 9 -3 15 0 15 9 0 15 -14 27 -23 19z"/>
<path d="M3720 185 c0 -7 -8 -19 -17 -24 -16 -9 -15 -10 7 -11 20 0 25 5 25
25 0 14 -3 25 -7 25 -5 0 -8 -7 -8 -15z"/>
<path d="M3858 193 c7 -3 16 -2 19 1 4 3 -2 6 -13 5 -11 0 -14 -3 -6 -6z"/>
<path d="M3768 183 c7 -3 16 -2 19 1 4 3 -2 6 -13 5 -11 0 -14 -3 -6 -6z"/>
<path d="M3910 150 c0 -5 7 -7 15 -4 8 4 15 8 15 10 0 2 -7 4 -15 4 -8 0 -15
-4 -15 -10z"/>
<path d="M4326 145 c-16 -12 -17 -15 -4 -15 9 0 18 7 22 15 7 18 6 18 -18 0z"/>
<path d="M4390 150 c0 -5 7 -10 16 -10 8 0 12 5 9 10 -3 6 -10 10 -16 10 -5 0
-9 -4 -9 -10z"/>
<path d="M16 15 c4 -8 11 -15 16 -15 6 0 5 6 -2 15 -7 8 -14 15 -16 15 -2 0
-1 -7 2 -15z"/>
</g>
</svg>
